<svg width="792" height="182" viewBox="0 0 792 182" fill="none" xmlns="http://www.w3.org/2000/svg">
<circle cx="94" cy="91" r="61" fill="white"/>
<g clip-path="url(#clip0_1209_12631)">
<path d="M93.4983 55.1494L102.257 64.0923L80.202 86.0812L71.4434 77.3487L93.4983 55.1494Z" fill="#F0B90B" stroke="#F0B90B"/>
<path d="M106.795 68.406L115.553 77.3489L80.202 112.594L71.4434 103.862L106.795 68.406Z" fill="#F0B90B" stroke="#F0B90B"/>
<path d="M66.9061 81.6624L75.6648 90.6052L66.9061 99.3377L58.1475 90.6052L66.9061 81.6624Z" fill="#F0B90B" stroke="#F0B90B"/>
<path d="M120.091 81.6624L128.85 90.6052L93.4989 125.851L84.7402 117.118L120.091 81.6624Z" fill="#F0B90B" stroke="#F0B90B"/>
</g>
<circle cx="231" cy="91" r="61" fill="#50AF95"/>
<path fill-rule="evenodd" clip-rule="evenodd" d="M236.901 93.0278C236.571 93.0528 234.868 93.1555 231.07 93.1555C228.049 93.1555 225.904 93.0639 225.152 93.0278C213.477 92.5087 204.763 90.4545 204.763 87.9951C204.763 85.5356 213.477 83.4842 225.152 82.9568V90.982C225.915 91.0375 228.101 91.1679 231.122 91.1679C234.747 91.1679 236.563 91.0153 236.89 90.9847V82.9623C248.54 83.487 257.234 85.5412 257.234 87.9951C257.234 90.449 248.542 92.5032 236.89 93.025L236.901 93.0278ZM236.901 82.1323V74.951H253.159V64H208.893V74.951H225.149V82.1295C211.936 82.743 202 85.3885 202 88.5586C202 91.7287 211.936 94.3714 225.149 94.9876V118H236.898V94.9793C250.08 94.3658 260 91.7231 260 88.5558C260 85.3885 250.088 82.7458 236.898 82.1295L236.901 82.1323Z" fill="white"/>
<path d="M368 152C401.804 152 429 124.804 429 91C429 57.1956 401.804 30 368 30C334.196 30 307 57.1956 307 91C307 124.804 334.196 152 368 152Z" fill="#2775CA"/>
<path d="M384.775 100.658C384.775 91.7624 379.437 88.7124 368.762 87.4418C361.137 86.4249 359.612 84.3918 359.612 80.8331C359.612 77.2743 362.154 74.9874 367.237 74.9874C371.812 74.9874 374.354 76.5124 375.625 80.3249C375.879 81.0874 376.642 81.5956 377.404 81.5956H381.471C382.487 81.5956 383.25 80.8331 383.25 79.8168V79.5624C382.233 73.9706 377.658 69.6499 371.812 69.1418V63.0418C371.812 62.0249 371.05 61.2624 369.779 61.0081H365.967C364.95 61.0081 364.187 61.7706 363.933 63.0418V68.8874C356.308 69.9043 351.479 74.9874 351.479 81.3418C351.479 89.7293 356.562 93.0331 367.237 94.3043C374.354 95.5749 376.642 97.0999 376.642 101.167C376.642 105.234 373.083 108.029 368.254 108.029C361.646 108.029 359.358 105.233 358.596 101.421C358.342 100.404 357.579 99.8956 356.817 99.8956H352.496C351.479 99.8956 350.717 100.658 350.717 101.675V101.929C351.733 108.283 355.8 112.858 364.187 114.129V120.229C364.187 121.246 364.95 122.008 366.221 122.262H370.033C371.05 122.262 371.812 121.5 372.067 120.229V114.129C379.692 112.858 384.775 107.521 384.775 100.658V100.658Z" fill="white"/>
<path d="M355.038 127.346C335.213 120.23 325.046 98.117 332.417 78.5458C336.229 67.8708 344.617 59.7376 355.038 55.9251C356.054 55.417 356.563 54.6545 356.563 53.3833V49.8251C356.563 48.8083 356.054 48.0458 355.038 47.792C354.783 47.792 354.275 47.792 354.021 48.0458C329.875 55.6708 316.658 81.342 324.283 105.488C328.858 119.721 339.788 130.65 354.021 135.225C355.038 135.733 356.054 135.225 356.308 134.208C356.563 133.955 356.563 133.7 356.563 133.192V129.633C356.563 128.871 355.8 127.855 355.038 127.346ZM381.979 48.0458C380.963 47.5376 379.946 48.0458 379.692 49.0626C379.438 49.317 379.438 49.5708 379.438 50.0795V53.6376C379.438 54.6545 380.2 55.6708 380.963 56.1795C400.788 63.2958 410.954 85.4083 403.583 104.98C399.771 115.655 391.383 123.788 380.963 127.6C379.946 128.108 379.438 128.871 379.438 130.142V133.7C379.438 134.717 379.946 135.48 380.963 135.733C381.217 135.733 381.725 135.733 381.979 135.48C406.125 127.855 419.342 102.183 411.717 78.0376C407.142 63.5501 395.958 52.6208 381.979 48.0458Z" fill="white"/>
<defs>
<clipPath id="clip0_1209_12631">
<rect width="71" height="71" fill="white" transform="translate(58 55)"/>
</clipPath>
</defs>
</svg>
