<svg width="122" height="122" viewBox="0 0 122 122" fill="none" xmlns="http://www.w3.org/2000/svg">
<circle cx="61" cy="61" r="61" fill="white" fill-opacity="0.15"/>
<path d="M61 31C57.0603 31 53.1593 31.776 49.5195 33.2836C45.8797 34.7913 42.5726 37.001 39.7868 39.7868C37.001 42.5726 34.7913 45.8797 33.2836 49.5195C31.776 53.1593 31 57.0603 31 61C31 64.9397 31.776 68.8407 33.2836 72.4805C34.7913 76.1203 37.001 79.4274 39.7868 82.2132C42.5726 84.999 45.8797 87.2087 49.5195 88.7164C53.1593 90.224 57.0603 91 61 91C68.9565 91 76.5871 87.8393 82.2132 82.2132C87.8393 76.5871 91 68.9565 91 61C91 53.0435 87.8393 45.4129 82.2132 39.7868C76.5871 34.1607 68.9565 31 61 31V31ZM61 26C70.2826 26 79.185 29.6875 85.7487 36.2513C92.3125 42.815 96 51.7174 96 61C96 70.2826 92.3125 79.185 85.7487 85.7487C79.185 92.3125 70.2826 96 61 96C51.7174 96 42.815 92.3125 36.2513 85.7487C29.6875 79.185 26 70.2826 26 61C26 51.7174 29.6875 42.815 36.2513 36.2513C42.815 29.6875 51.7174 26 61 26V26Z" fill="url(#paint0_linear_1206_10440)"/>
<path d="M71.0005 43.5C74.3338 43.5 76.0005 45.1667 76.0005 48.5C76.0005 51.8333 74.3338 53.5 71.0005 53.5C67.6671 53.5 66.0005 51.8333 66.0005 48.5C66.0005 45.1667 67.6671 43.5 71.0005 43.5ZM37.7705 82.77L34.2305 79.23L48.7355 64.73C49.9909 63.474 51.6514 62.7042 53.4213 62.5577C55.1911 62.4112 56.9556 62.8975 58.4005 63.93L69.2005 71.64C69.6621 71.969 70.2217 72.1314 70.7877 72.1005C71.3537 72.0696 71.8924 71.8473 72.3155 71.47L91.8355 54L95.1655 57.73L75.6505 75.195C74.3808 76.3313 72.7621 77.0014 71.0608 77.095C69.3596 77.1886 67.6771 76.7001 66.2905 75.71L55.4905 67.995C55.009 67.653 54.422 67.4926 53.8336 67.542C53.2451 67.5914 52.6931 67.8475 52.2755 68.265L37.7705 82.765V82.77Z" fill="url(#paint1_linear_1206_10440)"/>
<defs>
<linearGradient id="paint0_linear_1206_10440" x1="61" y1="26" x2="61" y2="96" gradientUnits="userSpaceOnUse">
<stop stop-color="#FD5301"/>
<stop offset="1" stop-color="#D41313"/>
</linearGradient>
<linearGradient id="paint1_linear_1206_10440" x1="64.698" y1="43.5" x2="64.698" y2="82.77" gradientUnits="userSpaceOnUse">
<stop stop-color="#FD5301"/>
<stop offset="1" stop-color="#D41313"/>
</linearGradient>
</defs>
</svg>
