<svg width="122" height="122" viewBox="0 0 122 122" fill="none" xmlns="http://www.w3.org/2000/svg">
<circle cx="61" cy="61" r="61" fill="white" fill-opacity="0.15"/>
<path d="M38.1943 44.778H82.8609V50.3613H38.1943V44.778ZM43.7776 33.6113H77.2776V39.1947H43.7776V33.6113ZM82.833 55.9167H38.1663C36.6855 55.9167 35.2654 56.505 34.2183 57.5521C33.1712 58.5991 32.583 60.0193 32.583 61.5001V83.8334C32.583 85.3142 33.1712 86.7343 34.2183 87.7814C35.2654 88.8285 36.6855 89.4167 38.1663 89.4167H82.833C84.3138 89.4167 85.7339 88.8285 86.781 87.7814C87.8281 86.7343 88.4163 85.3142 88.4163 83.8334V61.5001C88.4163 60.0193 87.8281 58.5991 86.781 57.5521C85.7339 56.505 84.3138 55.9167 82.833 55.9167ZM55.7538 83.8334L46.5413 74.7884L50.4497 70.8801L55.7538 76.1842L70.5497 61.3884L74.458 65.2967L55.7538 83.8334Z" fill="url(#paint0_linear_1206_10418)"/>
<defs>
<linearGradient id="paint0_linear_1206_10418" x1="60.4997" y1="33.6113" x2="60.4997" y2="89.4167" gradientUnits="userSpaceOnUse">
<stop stop-color="#FD5301"/>
<stop offset="1" stop-color="#D41313"/>
</linearGradient>
</defs>
</svg>
