<svg width="122" height="122" viewBox="0 0 122 122" fill="none" xmlns="http://www.w3.org/2000/svg">
<circle cx="61" cy="61" r="61" fill="white" fill-opacity="0.15"/>
<path d="M83.7504 93.5H38.2504V87H83.7504V93.5ZM77.2504 54.5C72.6354 54.5 68.3454 57.0025 66.0379 61H64.2504V44.75H74.0004V38.25H64.2504V28.5H57.7504V38.25H48.0004V44.75H57.7504V61H55.9629C52.3879 54.7925 44.4254 52.6475 38.2504 56.255C35.2567 57.9673 33.0632 60.7956 32.1496 64.1211C31.236 67.4466 31.6767 70.9986 33.3754 74C35.7804 78.03 40.1029 80.5 44.7504 80.5H77.2504C80.6982 80.5 84.0048 79.1304 86.4427 76.6924C88.8807 74.2544 90.2504 70.9478 90.2504 67.5C90.2504 64.0522 88.8807 60.7456 86.4427 58.3076C84.0048 55.8696 80.6982 54.5 77.2504 54.5V54.5Z" fill="url(#paint0_linear_1206_10433)"/>
<defs>
<linearGradient id="paint0_linear_1206_10433" x1="60.967" y1="28.5" x2="60.967" y2="93.5" gradientUnits="userSpaceOnUse">
<stop stop-color="#FD5301"/>
<stop offset="1" stop-color="#D41313"/>
</linearGradient>
</defs>
</svg>
