<svg width="122" height="122" viewBox="0 0 122 122" fill="none" xmlns="http://www.w3.org/2000/svg">
<circle cx="61" cy="61" r="61" fill="white" fill-opacity="0.15"/>
<path d="M88.1253 37.8333H34.8753C34.0907 37.8333 33.3383 38.1449 32.7835 38.6997C32.2287 39.2545 31.917 40.007 31.917 40.7916V82.2082C31.917 82.9928 32.2287 83.7453 32.7835 84.3001C33.3383 84.8549 34.0907 85.1666 34.8753 85.1666H88.1253C88.9099 85.1666 89.6624 84.8549 90.2172 84.3001C90.772 83.7453 91.0837 82.9928 91.0837 82.2082V40.7916C91.0837 40.007 90.772 39.2545 90.2172 38.6997C89.6624 38.1449 88.9099 37.8333 88.1253 37.8333V37.8333ZM85.167 70.3749C82.8132 70.3749 80.5558 71.31 78.8914 72.9743C77.227 74.6387 76.292 76.8961 76.292 79.2499H46.7087C46.7087 76.8961 45.7736 74.6387 44.1092 72.9743C42.4448 71.31 40.1875 70.3749 37.8337 70.3749V52.6249C40.1875 52.6249 42.4448 51.6899 44.1092 50.0255C45.7736 48.3611 46.7087 46.1037 46.7087 43.7499H76.292C76.292 46.1037 77.227 48.3611 78.8914 50.0255C80.5558 51.6899 82.8132 52.6249 85.167 52.6249V70.3749Z" fill="url(#paint0_linear_1206_10425)"/>
<path d="M61.5003 49.6667C54.9742 49.6667 49.667 54.974 49.667 61.5001C49.667 68.0262 54.9742 73.3334 61.5003 73.3334C68.0264 73.3334 73.3337 68.0262 73.3337 61.5001C73.3337 54.974 68.0264 49.6667 61.5003 49.6667ZM61.5003 67.4167C58.2373 67.4167 55.5837 64.7631 55.5837 61.5001C55.5837 58.237 58.2373 55.5834 61.5003 55.5834C64.7634 55.5834 67.417 58.237 67.417 61.5001C67.417 64.7631 64.7634 67.4167 61.5003 67.4167Z" fill="url(#paint1_linear_1206_10425)"/>
<defs>
<linearGradient id="paint0_linear_1206_10425" x1="61.5003" y1="37.8333" x2="61.5003" y2="85.1666" gradientUnits="userSpaceOnUse">
<stop stop-color="#FD5301"/>
<stop offset="1" stop-color="#D41313"/>
</linearGradient>
<linearGradient id="paint1_linear_1206_10425" x1="61.5003" y1="49.6667" x2="61.5003" y2="73.3334" gradientUnits="userSpaceOnUse">
<stop stop-color="#FD5301"/>
<stop offset="1" stop-color="#D41313"/>
</linearGradient>
</defs>
</svg>
