<svg width="93" height="92" viewBox="0 0 93 92" fill="none" xmlns="http://www.w3.org/2000/svg">
<path d="M46.0308 91.9975C71.453 91.9975 92.0617 71.4032 92.0617 45.9988C92.0617 20.5943 71.453 0 46.0308 0C20.6087 0 0 20.5943 0 45.9988C0 71.4032 20.6087 91.9975 46.0308 91.9975Z" fill="url(#paint0_linear_175_7291)"/>
<path d="M41.4219 57.6083C41.4219 57.6083 45.0077 61.2016 45.4402 61.5474L49.765 56.5365C49.4215 56.218 46.6017 53.4248 46.0581 52.8914L42.4598 49.2957L53.776 37.9874L49.0805 33.3347L37.7594 44.6553L37.0328 43.9292C34.5749 41.4731 33.1941 38.1418 33.1941 34.6682C33.1941 31.1947 34.5749 27.8634 37.0328 25.4072C39.4907 22.9511 42.8243 21.5712 46.3002 21.5712C49.7762 21.5712 53.1098 22.9511 55.5677 25.4072L60.2509 20.7273C58.419 18.8974 56.2444 17.446 53.8512 16.4558C51.458 15.4657 48.8931 14.9564 46.3029 14.9568C43.7127 14.9573 41.148 15.4676 38.7552 16.4585C36.3623 17.4495 34.1883 18.9017 32.3571 20.7323C30.5258 22.5629 29.0734 24.736 28.0826 27.1275C27.0918 29.519 26.5821 32.0821 26.5825 34.6705C26.583 37.2589 27.0936 39.8218 28.0853 42.213C29.0769 44.6042 30.5301 46.7767 32.362 48.6067L41.4219 57.6083Z" fill="white"/>
<path d="M59.7023 43.4055L55.0192 48.0854C56.2362 49.3016 57.2016 50.7454 57.8602 52.3344C58.5189 53.9234 58.8579 55.6265 58.8579 57.3464C58.8579 59.0663 58.5189 60.7694 57.8602 62.3584C57.2016 63.9474 56.2362 65.3912 55.0192 66.6074C53.8022 67.8236 52.3574 68.7883 50.7672 69.4465C49.1771 70.1047 47.4729 70.4434 45.7517 70.4434C44.0306 70.4434 42.3263 70.1047 40.7362 69.4465C39.1461 68.7883 37.7013 67.8236 36.4843 66.6074L31.8135 71.275C33.6367 73.1418 35.8125 74.6285 38.215 75.6487C40.6174 76.669 43.1986 77.2025 45.8089 77.2184C48.4193 77.2343 51.0068 76.7322 53.4215 75.7413C55.8362 74.7504 58.03 73.2904 59.8758 71.4459C61.7216 69.6013 63.1827 67.409 64.1743 64.996C65.1659 62.583 65.6683 59.9973 65.6524 57.3888C65.6365 54.7802 65.1026 52.2008 64.0816 49.8001C63.0607 47.3993 61.573 45.225 59.7048 43.403L59.7023 43.4055Z" fill="white"/>
<defs>
<linearGradient id="paint0_linear_175_7291" x1="46.0308" y1="0" x2="46.0308" y2="91.9975" gradientUnits="userSpaceOnUse">
<stop stop-color="#D41313"/>
<stop offset="1" stop-color="#FD5301"/>
</linearGradient>
</defs>
</svg>
